<mxfile host="app.diagrams.net" agent="Mozilla/5.0 (Windows NT 10.0; Win64; x64) AppleWebKit/537.36 (KHTML, like Gecko) Chrome/133.0.0.0 Safari/537.36" version="26.0.16">
  <diagram name="Страница — 1" id="3DHUMOmoUHWDdW3HEEZW">
    <mxGraphModel dx="1050" dy="-647" grid="1" gridSize="10" guides="1" tooltips="1" connect="1" arrows="1" fold="1" page="1" pageScale="1" pageWidth="827" pageHeight="1169" math="0" shadow="0">
      <root>
        <mxCell id="0" />
        <mxCell id="1" parent="0" />
        <mxCell id="vS4OvQygCDc1IGMakolR-1" value="Старт" style="rounded=1;whiteSpace=wrap;html=1;" vertex="1" parent="1">
          <mxGeometry x="260" y="1200" width="120" height="40" as="geometry" />
        </mxCell>
        <mxCell id="vS4OvQygCDc1IGMakolR-7" style="edgeStyle=orthogonalEdgeStyle;rounded=0;orthogonalLoop=1;jettySize=auto;html=1;exitX=0.5;exitY=1;exitDx=0;exitDy=0;entryX=0.5;entryY=0;entryDx=0;entryDy=0;" edge="1" parent="1" source="vS4OvQygCDc1IGMakolR-2" target="vS4OvQygCDc1IGMakolR-6">
          <mxGeometry relative="1" as="geometry" />
        </mxCell>
        <mxCell id="vS4OvQygCDc1IGMakolR-2" value="Введеня a, b, c,&amp;nbsp;&amp;nbsp;" style="shape=parallelogram;perimeter=parallelogramPerimeter;whiteSpace=wrap;html=1;fixedSize=1;" vertex="1" parent="1">
          <mxGeometry x="230" y="1290" width="160" height="60" as="geometry" />
        </mxCell>
        <mxCell id="vS4OvQygCDc1IGMakolR-5" style="edgeStyle=orthogonalEdgeStyle;rounded=0;orthogonalLoop=1;jettySize=auto;html=1;exitX=0.5;exitY=1;exitDx=0;exitDy=0;entryX=0.565;entryY=0.017;entryDx=0;entryDy=0;entryPerimeter=0;" edge="1" parent="1" source="vS4OvQygCDc1IGMakolR-1" target="vS4OvQygCDc1IGMakolR-2">
          <mxGeometry relative="1" as="geometry" />
        </mxCell>
        <mxCell id="vS4OvQygCDc1IGMakolR-6" value="a==b&lt;div&gt;a==c&lt;/div&gt;" style="rhombus;whiteSpace=wrap;html=1;" vertex="1" parent="1">
          <mxGeometry x="230" y="1400" width="160" height="100" as="geometry" />
        </mxCell>
        <mxCell id="vS4OvQygCDc1IGMakolR-8" value="" style="endArrow=none;html=1;rounded=0;" edge="1" parent="1">
          <mxGeometry width="50" height="50" relative="1" as="geometry">
            <mxPoint x="520" y="1449.5" as="sourcePoint" />
            <mxPoint x="390" y="1449.5" as="targetPoint" />
          </mxGeometry>
        </mxCell>
        <mxCell id="vS4OvQygCDc1IGMakolR-9" value="" style="endArrow=none;html=1;rounded=0;" edge="1" parent="1">
          <mxGeometry width="50" height="50" relative="1" as="geometry">
            <mxPoint x="230" y="1449.5" as="sourcePoint" />
            <mxPoint x="100" y="1449.5" as="targetPoint" />
          </mxGeometry>
        </mxCell>
        <mxCell id="vS4OvQygCDc1IGMakolR-11" value="" style="endArrow=none;html=1;rounded=0;" edge="1" parent="1" source="vS4OvQygCDc1IGMakolR-13">
          <mxGeometry width="50" height="50" relative="1" as="geometry">
            <mxPoint x="100" y="1570" as="sourcePoint" />
            <mxPoint x="100" y="1460" as="targetPoint" />
          </mxGeometry>
        </mxCell>
        <mxCell id="vS4OvQygCDc1IGMakolR-12" value="" style="endArrow=none;html=1;rounded=0;" edge="1" parent="1">
          <mxGeometry width="50" height="50" relative="1" as="geometry">
            <mxPoint x="520" y="1560" as="sourcePoint" />
            <mxPoint x="520" y="1450" as="targetPoint" />
          </mxGeometry>
        </mxCell>
        <mxCell id="vS4OvQygCDc1IGMakolR-13" value="Так" style="text;html=1;align=center;verticalAlign=middle;resizable=0;points=[];autosize=1;strokeColor=none;fillColor=none;" vertex="1" parent="1">
          <mxGeometry x="80" y="1440" width="40" height="30" as="geometry" />
        </mxCell>
        <mxCell id="vS4OvQygCDc1IGMakolR-15" value="трикутник рівносторонній" style="shape=parallelogram;perimeter=parallelogramPerimeter;whiteSpace=wrap;html=1;fixedSize=1;" vertex="1" parent="1">
          <mxGeometry x="20" y="1560" width="180" height="50" as="geometry" />
        </mxCell>
        <mxCell id="vS4OvQygCDc1IGMakolR-16" value="" style="endArrow=classic;html=1;rounded=0;" edge="1" parent="1">
          <mxGeometry width="50" height="50" relative="1" as="geometry">
            <mxPoint x="99.5" y="1470" as="sourcePoint" />
            <mxPoint x="100" y="1560" as="targetPoint" />
          </mxGeometry>
        </mxCell>
        <mxCell id="vS4OvQygCDc1IGMakolR-17" value="Ні" style="text;html=1;align=center;verticalAlign=middle;resizable=0;points=[];autosize=1;strokeColor=none;fillColor=none;" vertex="1" parent="1">
          <mxGeometry x="505" y="1550" width="30" height="30" as="geometry" />
        </mxCell>
        <mxCell id="vS4OvQygCDc1IGMakolR-18" value="" style="endArrow=none;html=1;rounded=0;" edge="1" parent="1">
          <mxGeometry width="50" height="50" relative="1" as="geometry">
            <mxPoint x="520" y="1600" as="sourcePoint" />
            <mxPoint x="520" y="1570" as="targetPoint" />
          </mxGeometry>
        </mxCell>
        <mxCell id="vS4OvQygCDc1IGMakolR-19" value="" style="endArrow=classic;html=1;rounded=0;entryX=0.5;entryY=0;entryDx=0;entryDy=0;" edge="1" parent="1" target="vS4OvQygCDc1IGMakolR-20">
          <mxGeometry width="50" height="50" relative="1" as="geometry">
            <mxPoint x="520" y="1600" as="sourcePoint" />
            <mxPoint x="460" y="1640" as="targetPoint" />
            <Array as="points">
              <mxPoint x="460" y="1600" />
            </Array>
          </mxGeometry>
        </mxCell>
        <mxCell id="vS4OvQygCDc1IGMakolR-20" value="a == b ||&lt;div&gt;a == c ||&lt;/div&gt;&lt;div&gt;b == c&amp;nbsp;&lt;/div&gt;" style="rhombus;whiteSpace=wrap;html=1;" vertex="1" parent="1">
          <mxGeometry x="400" y="1640" width="120" height="110" as="geometry" />
        </mxCell>
        <mxCell id="vS4OvQygCDc1IGMakolR-22" value="" style="endArrow=none;html=1;rounded=0;" edge="1" parent="1">
          <mxGeometry width="50" height="50" relative="1" as="geometry">
            <mxPoint x="310" y="1695" as="sourcePoint" />
            <mxPoint x="400" y="1694.5" as="targetPoint" />
          </mxGeometry>
        </mxCell>
        <mxCell id="vS4OvQygCDc1IGMakolR-23" value="" style="endArrow=none;html=1;rounded=0;" edge="1" parent="1">
          <mxGeometry width="50" height="50" relative="1" as="geometry">
            <mxPoint x="520" y="1695" as="sourcePoint" />
            <mxPoint x="610" y="1695" as="targetPoint" />
          </mxGeometry>
        </mxCell>
        <mxCell id="vS4OvQygCDc1IGMakolR-24" value="Yes" style="text;html=1;align=center;verticalAlign=middle;resizable=0;points=[];autosize=1;strokeColor=none;fillColor=none;" vertex="1" parent="1">
          <mxGeometry x="290" y="1690" width="40" height="30" as="geometry" />
        </mxCell>
        <mxCell id="vS4OvQygCDc1IGMakolR-25" value="No" style="text;html=1;align=center;verticalAlign=middle;resizable=0;points=[];autosize=1;strokeColor=none;fillColor=none;" vertex="1" parent="1">
          <mxGeometry x="590" y="1688" width="40" height="30" as="geometry" />
        </mxCell>
        <mxCell id="vS4OvQygCDc1IGMakolR-26" value="" style="endArrow=classic;html=1;rounded=0;" edge="1" parent="1">
          <mxGeometry width="50" height="50" relative="1" as="geometry">
            <mxPoint x="309.5" y="1709" as="sourcePoint" />
            <mxPoint x="309.5" y="1799" as="targetPoint" />
          </mxGeometry>
        </mxCell>
        <mxCell id="vS4OvQygCDc1IGMakolR-27" value="" style="endArrow=classic;html=1;rounded=0;" edge="1" parent="1">
          <mxGeometry width="50" height="50" relative="1" as="geometry">
            <mxPoint x="609.5" y="1709" as="sourcePoint" />
            <mxPoint x="609.5" y="1799" as="targetPoint" />
          </mxGeometry>
        </mxCell>
        <mxCell id="vS4OvQygCDc1IGMakolR-28" value="трикутник рівнобедрений" style="shape=parallelogram;perimeter=parallelogramPerimeter;whiteSpace=wrap;html=1;fixedSize=1;" vertex="1" parent="1">
          <mxGeometry x="230" y="1800" width="170" height="60" as="geometry" />
        </mxCell>
        <mxCell id="vS4OvQygCDc1IGMakolR-29" value="трикутник рівносторонній" style="shape=parallelogram;perimeter=parallelogramPerimeter;whiteSpace=wrap;html=1;fixedSize=1;" vertex="1" parent="1">
          <mxGeometry x="530" y="1800" width="160" height="60" as="geometry" />
        </mxCell>
        <mxCell id="vS4OvQygCDc1IGMakolR-30" value="Кінець" style="rounded=1;whiteSpace=wrap;html=1;" vertex="1" parent="1">
          <mxGeometry x="400" y="1990" width="120" height="60" as="geometry" />
        </mxCell>
        <mxCell id="vS4OvQygCDc1IGMakolR-31" value="" style="endArrow=none;html=1;rounded=0;" edge="1" parent="1">
          <mxGeometry width="50" height="50" relative="1" as="geometry">
            <mxPoint x="230" y="1950" as="sourcePoint" />
            <mxPoint x="230" y="1860" as="targetPoint" />
          </mxGeometry>
        </mxCell>
        <mxCell id="vS4OvQygCDc1IGMakolR-32" value="" style="endArrow=none;html=1;rounded=0;" edge="1" parent="1">
          <mxGeometry width="50" height="50" relative="1" as="geometry">
            <mxPoint x="670" y="1950" as="sourcePoint" />
            <mxPoint x="670" y="1860" as="targetPoint" />
          </mxGeometry>
        </mxCell>
        <mxCell id="vS4OvQygCDc1IGMakolR-33" value="" style="endArrow=none;html=1;rounded=0;" edge="1" parent="1">
          <mxGeometry width="50" height="50" relative="1" as="geometry">
            <mxPoint x="230" y="1950" as="sourcePoint" />
            <mxPoint x="390" y="1950" as="targetPoint" />
          </mxGeometry>
        </mxCell>
        <mxCell id="vS4OvQygCDc1IGMakolR-34" value="" style="endArrow=none;html=1;rounded=0;" edge="1" parent="1">
          <mxGeometry width="50" height="50" relative="1" as="geometry">
            <mxPoint x="510" y="1950" as="sourcePoint" />
            <mxPoint x="670" y="1950" as="targetPoint" />
          </mxGeometry>
        </mxCell>
        <mxCell id="vS4OvQygCDc1IGMakolR-35" value="" style="endArrow=classic;html=1;rounded=0;entryX=0.75;entryY=0;entryDx=0;entryDy=0;" edge="1" parent="1" target="vS4OvQygCDc1IGMakolR-30">
          <mxGeometry width="50" height="50" relative="1" as="geometry">
            <mxPoint x="510" y="1950" as="sourcePoint" />
            <mxPoint x="460" y="1990" as="targetPoint" />
          </mxGeometry>
        </mxCell>
        <mxCell id="vS4OvQygCDc1IGMakolR-36" value="" style="endArrow=classic;html=1;rounded=0;" edge="1" parent="1">
          <mxGeometry width="50" height="50" relative="1" as="geometry">
            <mxPoint x="390" y="1950" as="sourcePoint" />
            <mxPoint x="420" y="1990" as="targetPoint" />
            <Array as="points" />
          </mxGeometry>
        </mxCell>
      </root>
    </mxGraphModel>
  </diagram>
</mxfile>
